<svg xmlns="http://www.w3.org/2000/svg" xmlns:xlink="http://www.w3.org/1999/xlink" width="500" zoomAndPan="magnify" viewBox="0 0 375 374.999991" height="500" preserveAspectRatio="xMidYMid meet" version="1.0"><rect x="-37.5" width="450" fill="#ffffff" y="-37.499999" height="449.999989" fill-opacity="1"/><rect x="-37.5" width="450" fill="#0b0b0b" y="-37.499999" height="449.999989" fill-opacity="1"/><path fill="#fefefe" d="M 265.761719 271.363281 C 261.476562 233.679688 244.28125 218.0625 231.71875 206.671875 C 223.035156 198.765625 218.859375 194.65625 218.859375 187.496094 C 218.859375 180.433594 223.023438 176.398438 231.679688 168.65625 C 244.390625 157.300781 261.792969 141.746094 265.769531 103.554688 C 265.929688 101.949219 265.921875 100.347656 265.742188 98.746094 C 265.566406 97.140625 265.222656 95.574219 264.71875 94.042969 C 264.210938 92.515625 263.550781 91.054688 262.738281 89.660156 C 261.925781 88.269531 260.976562 86.976562 259.890625 85.785156 C 258.730469 84.511719 257.453125 83.371094 256.058594 82.363281 C 254.660156 81.359375 253.171875 80.507812 251.597656 79.8125 C 250.023438 79.117188 248.390625 78.59375 246.707031 78.242188 C 245.019531 77.886719 243.316406 77.714844 241.59375 77.71875 L 133.394531 77.71875 C 131.671875 77.710938 129.964844 77.886719 128.277344 78.238281 C 126.589844 78.589844 124.957031 79.113281 123.378906 79.808594 C 121.800781 80.503906 120.3125 81.355469 118.910156 82.359375 C 117.511719 83.367188 116.230469 84.507812 115.070312 85.785156 C 113.988281 86.976562 113.042969 88.273438 112.234375 89.664062 C 111.421875 91.058594 110.765625 92.519531 110.261719 94.050781 C 109.757812 95.578125 109.417969 97.144531 109.242188 98.746094 C 109.066406 100.347656 109.058594 101.949219 109.21875 103.554688 C 113.183594 141.625 130.523438 157.066406 143.183594 168.339844 C 151.925781 176.125 156.128906 180.1875 156.128906 187.496094 C 156.128906 194.894531 151.914062 199.042969 143.144531 206.976562 C 130.644531 218.296875 113.492188 233.796875 109.230469 271.363281 C 109.054688 272.960938 109.050781 274.558594 109.214844 276.15625 C 109.378906 277.753906 109.710938 279.316406 110.203125 280.84375 C 110.695312 282.375 111.34375 283.835938 112.148438 285.226562 C 112.949219 286.617188 113.886719 287.910156 114.964844 289.105469 C 116.125 290.394531 117.410156 291.550781 118.816406 292.570312 C 120.222656 293.589844 121.71875 294.449219 123.308594 295.152344 C 124.898438 295.855469 126.539062 296.386719 128.242188 296.746094 C 129.941406 297.101562 131.660156 297.277344 133.394531 297.273438 L 241.59375 297.273438 C 243.332031 297.277344 245.050781 297.101562 246.75 296.746094 C 248.449219 296.386719 250.09375 295.855469 251.683594 295.152344 C 253.269531 294.449219 254.765625 293.589844 256.171875 292.570312 C 257.582031 291.550781 258.863281 290.394531 260.027344 289.105469 C 261.101562 287.910156 262.042969 286.617188 262.84375 285.226562 C 263.644531 283.835938 264.292969 282.375 264.789062 280.84375 C 265.28125 279.316406 265.609375 277.753906 265.773438 276.15625 C 265.9375 274.558594 265.933594 272.960938 265.761719 271.363281 Z M 230.28125 273.75 L 144.921875 273.75 C 137.277344 273.75 135.121094 264.929688 140.480469 259.460938 C 153.460938 246.304688 179.652344 236.886719 179.652344 221.800781 L 179.652344 171.8125 C 179.652344 162.085938 161.03125 154.660156 149.507812 138.878906 C 147.609375 136.277344 147.800781 132.605469 152.632812 132.605469 L 222.582031 132.605469 C 226.703125 132.605469 227.589844 136.246094 225.71875 138.855469 C 214.363281 154.660156 195.335938 162.035156 195.335938 171.8125 L 195.335938 221.800781 C 195.335938 236.761719 222.640625 244.835938 234.738281 259.472656 C 239.617188 265.375 237.910156 273.75 230.28125 273.75 Z M 230.28125 273.75 " fill-opacity="1" fill-rule="nonzero"/></svg>