<svg xmlns="http://www.w3.org/2000/svg" xmlns:xlink="http://www.w3.org/1999/xlink" width="500" zoomAndPan="magnify" viewBox="0 0 375 374.999991" height="500" preserveAspectRatio="xMidYMid meet" version="1.0"><defs><clipPath id="3e8f8299ee"><path d="M 75 112.5 L 187.5 112.5 L 187.5 262.5 L 75 262.5 Z M 75 112.5 " clip-rule="nonzero"/></clipPath><clipPath id="ed4d615769"><path d="M 187.5 112.5 L 300 112.5 L 300 262.5 L 187.5 262.5 Z M 187.5 112.5 " clip-rule="nonzero"/></clipPath></defs><rect x="-37.5" width="450" fill="#ffffff" y="-37.499999" height="449.999989" fill-opacity="1"/><rect x="-37.5" width="450" fill="#0b0b0b" y="-37.499999" height="449.999989" fill-opacity="1"/><g clip-path="url(#3e8f8299ee)"><path fill="#ffffff" d="M 112.503906 224.914062 L 112.503906 243.703125 L 168.75 243.703125 L 168.75 206.242188 L 168.753906 206.242188 L 168.753906 187.496094 L 187.5 187.496094 L 187.5 206.246094 L 187.496094 206.246094 L 187.496094 243.742188 L 168.75 243.742188 L 168.75 262.488281 L 75.007812 262.488281 L 75.007812 243.703125 L 93.753906 243.703125 L 93.753906 149.765625 L 93.757812 149.765625 L 93.757812 131.25 L 75.007812 131.25 L 75.007812 112.5 L 168.75 112.5 L 168.75 131.25 L 112.507812 131.25 L 112.507812 149.769531 L 112.503906 149.769531 L 112.503906 168.554688 L 168.75 168.554688 L 168.75 149.996094 L 168.753906 149.996094 L 168.753906 131.25 L 187.5 131.25 L 187.5 150 L 187.496094 150 L 187.496094 168.746094 L 168.75 168.746094 L 168.75 187.339844 L 112.503906 187.339844 Z M 112.503906 224.914062 " fill-opacity="1" fill-rule="evenodd"/></g><g clip-path="url(#ed4d615769)"><path fill="#ffffff" d="M 225.003906 224.914062 L 225.003906 243.703125 L 281.25 243.703125 L 281.25 206.242188 L 281.253906 206.242188 L 281.253906 187.496094 L 300 187.496094 L 300 206.246094 L 299.996094 206.246094 L 299.996094 243.742188 L 281.25 243.742188 L 281.25 262.488281 L 187.507812 262.488281 L 187.507812 243.703125 L 206.253906 243.703125 L 206.253906 149.765625 L 206.257812 149.765625 L 206.257812 131.25 L 187.507812 131.25 L 187.507812 112.5 L 281.25 112.5 L 281.25 131.25 L 225.007812 131.25 L 225.007812 149.769531 L 225.003906 149.769531 L 225.003906 168.554688 L 281.25 168.554688 L 281.25 149.996094 L 281.253906 149.996094 L 281.253906 131.25 L 300 131.25 L 300 150 L 299.996094 150 L 299.996094 168.746094 L 281.25 168.746094 L 281.25 187.339844 L 225.003906 187.339844 Z M 225.003906 224.914062 " fill-opacity="1" fill-rule="evenodd"/></g></svg>