<svg xmlns="http://www.w3.org/2000/svg" xmlns:xlink="http://www.w3.org/1999/xlink" width="500" zoomAndPan="magnify" viewBox="0 0 375 374.999991" height="500" preserveAspectRatio="xMidYMid meet" version="1.0"><defs><clipPath id="c10ae4bef4"><path d="M 58 100.222656 L 317 100.222656 L 317 274.972656 L 58 274.972656 Z M 58 100.222656 " clip-rule="nonzero"/></clipPath></defs><rect x="-37.5" width="450" fill="#ffffff" y="-37.499999" height="449.999989" fill-opacity="1"/><rect x="-37.5" width="450" fill="#0b0b0b" y="-37.499999" height="449.999989" fill-opacity="1"/><g clip-path="url(#c10ae4bef4)"><path fill="#fefefe" d="M 308.558594 181.160156 C 297.324219 138.324219 284.382812 110.140625 254.566406 102.042969 C 250.015625 100.8125 245.730469 100.210938 241.464844 100.210938 C 232.46875 100.210938 225.230469 102.921875 218.210938 105.546875 C 211.757812 107.960938 204.546875 110.605469 194.578125 111.503906 L 187.113281 111.71875 C 187.113281 111.761719 164.574219 108.457031 156.726562 105.515625 C 149.75 102.898438 142.523438 100.195312 133.566406 100.195312 C 129.289062 100.195312 124.996094 100.796875 120.449219 102.035156 C 90.609375 110.136719 77.667969 138.3125 66.460938 181.15625 C 53.464844 230.777344 57.058594 264.039062 76.316406 272.425781 C 79.449219 273.800781 82.753906 274.496094 86.121094 274.496094 C 103.246094 274.496094 118.992188 256.496094 130.492188 243.335938 L 133.625 239.710938 C 143 228.742188 162.644531 222.453125 187.503906 222.453125 C 214.542969 222.453125 231.164062 227.777344 241.378906 239.726562 L 244.515625 243.359375 C 256.003906 256.503906 271.738281 274.484375 288.875 274.484375 C 292.261719 274.484375 295.554688 273.792969 298.667969 272.425781 C 317.925781 264.042969 321.523438 230.78125 308.558594 181.160156 Z M 146.585938 184.511719 L 133.730469 184.511719 L 133.730469 196.960938 C 133.730469 201.53125 129.714844 205.378906 124.960938 205.378906 C 120.195312 205.378906 116.175781 201.53125 116.175781 196.960938 L 116.175781 184.511719 L 104.101562 184.511719 C 99.546875 184.511719 95.6875 180.488281 95.6875 175.730469 C 95.6875 170.964844 99.542969 166.949219 104.101562 166.949219 L 116.175781 166.949219 L 116.175781 154.484375 C 116.175781 149.925781 120.199219 146.066406 124.960938 146.066406 C 129.714844 146.066406 133.730469 149.925781 133.730469 154.484375 L 133.730469 166.949219 L 146.585938 166.949219 C 151.136719 166.949219 155 170.964844 155 175.730469 C 155.003906 180.492188 151.140625 184.511719 146.585938 184.511719 Z M 237.878906 199.789062 C 230.757812 199.789062 224.972656 194.007812 224.972656 186.890625 C 224.972656 179.773438 230.769531 173.992188 237.878906 173.992188 C 244.988281 173.992188 250.765625 179.777344 250.765625 186.890625 C 250.765625 194.007812 244.980469 199.789062 237.878906 199.789062 Z M 261.945312 175.722656 C 254.828125 175.722656 249.050781 169.933594 249.050781 162.820312 C 249.050781 155.710938 254.835938 149.925781 261.945312 149.925781 C 269.050781 149.925781 274.84375 155.710938 274.847656 162.820312 C 274.847656 169.9375 269.050781 175.722656 261.945312 175.722656 Z M 261.945312 175.722656 " fill-opacity="1" fill-rule="nonzero"/></g></svg>